<?xml version="1.0" encoding="UTF-8"?><svg id="Livello_2" xmlns="http://www.w3.org/2000/svg" xmlns:xlink="http://www.w3.org/1999/xlink" viewBox="0 0 537.48 117.39"><defs><linearGradient id="Sfumatura_senza_nome_17" x1="58.56" y1="52.87" x2="10.37" y2="53.51" gradientUnits="userSpaceOnUse"><stop offset="0" stop-color="#fff"/><stop offset=".11" stop-color="#fff" stop-opacity=".98"/><stop offset=".24" stop-color="#fff" stop-opacity=".93"/><stop offset=".37" stop-color="#fff" stop-opacity=".84"/><stop offset=".5" stop-color="#fff" stop-opacity=".72"/><stop offset=".64" stop-color="#fff" stop-opacity=".56"/><stop offset=".78" stop-color="#fff" stop-opacity=".37"/><stop offset=".92" stop-color="#fff" stop-opacity=".15"/><stop offset="1" stop-color="#fff" stop-opacity="0"/></linearGradient></defs><path d="m217.89,35.47v39.31c0,3-1.03,5.62-2.98,7.57-1.94,1.94-4.56,2.97-7.56,2.97s-5.58-1.01-7.56-2.91c-2.04-1.94-3.12-4.59-3.12-7.63v-39.31c0-5.02-1.18-8.82-3.5-11.31-2.3-2.47-5.11-3.62-8.82-3.62-4.06,0-7.24,1.29-9.74,3.92-2.48,2.61-3.68,6.05-3.69,10.52v39.81c0,3.04-1.08,5.69-3.12,7.64-1.97,1.89-4.59,2.9-7.55,2.9s-5.41-.98-7.43-2.85c-2.13-1.95-3.26-4.62-3.26-7.7v-39.31c0-5.02-1.18-8.82-3.51-11.31-2.3-2.47-5.1-3.62-8.81-3.62-4.07,0-7.3,1.28-9.85,3.9-2.59,2.66-3.85,6.09-3.85,10.49v39.86c0,3-1.02,5.62-2.97,7.56-1.95,1.95-4.57,2.98-7.56,2.98s-5.58-1.01-7.56-2.9c-2.04-1.95-3.12-4.6-3.12-7.64V11.5c0-2.99,1.05-5.64,3.04-7.63,1.99-1.99,4.64-3.04,7.64-3.04s5.68,1.08,7.63,3.11c.31.33.58.66.85,1.01.22-.14.44-.28.65-.42,4.95-3,10.58-4.53,16.75-4.53s11.73,1.48,16.57,4.38c2.29,1.37,4.36,3.03,6.2,4.98,1.95-1.89,4.15-3.53,6.58-4.91,5.22-2.95,11.2-4.45,17.77-4.45,6.15,0,11.73,1.48,16.58,4.38,4.89,2.93,8.72,7.17,11.41,12.59,2.61,5.27,3.93,11.49,3.93,18.5Z" style="fill:#fff; stroke-width:0px;"/><path d="m359.59,11.5v68.9c0,7.12-1.62,13.54-4.82,19.11-3.2,5.57-7.65,9.99-13.23,13.15-5.55,3.14-11.93,4.74-18.94,4.74-3,0-5.65-1.06-7.64-3.05-1.99-1.99-3.04-4.63-3.04-7.63s1.05-5.65,3.05-7.64c1.98-1.99,4.63-3.04,7.63-3.04,3.19,0,5.86-.64,8.15-1.96,2.3-1.32,4.07-3.1,5.44-5.44,1.36-2.34,2.02-5.02,2.02-8.21V11.5c0-3.95,1.7-6.4,3.11-7.77,1.99-1.9,4.61-2.9,7.56-2.9s5.57,1,7.56,2.9c1.43,1.37,3.12,3.83,3.12,7.77Z" style="fill:#fff; stroke-width:0px;"/><path d="m441,39.54c.15,1.17.22,2.37.22,3.61,0,1.06-.05,2.09-.16,3.1.15-1.01.23-2.05.23-3.1v-.13c0-1.19-.1-2.35-.29-3.48Z" style="fill:#fff; stroke-width:0px;"/><path d="m456.61,21.04c-3.7-6.46-8.8-11.62-15.18-15.33-6.37-3.7-13.73-5.57-21.85-5.57s-15.63,1.87-22.05,5.57c-6.42,3.7-11.56,8.85-15.27,15.33-3.69,6.46-5.56,13.9-5.56,22.11s1.87,15.51,5.56,21.96c3.71,6.47,8.84,11.64,15.27,15.34,6.41,3.7,13.83,5.57,22.05,5.57s15.49-1.87,21.91-5.57c6.42-3.71,11.56-8.86,15.26-15.34,3.69-6.45,5.56-13.85,5.56-22.02-.1-8.19-2.02-15.61-5.7-22.05Zm-15.33,22.11c0,1.05-.08,2.09-.23,3.1,0,.07-.02.14-.03.2-1.63,10.42-10.65,18.38-21.52,18.38-11.63,0-21.12-9.1-21.74-20.56-.02-.38-.03-.74-.03-1.12v-.13c0-.36,0-.71.03-1.06.59-11.48,10.09-20.63,21.74-20.63,10.82,0,19.8,7.89,21.49,18.21.19,1.13.29,2.29.29,3.48v.13Z" style="fill:#fff; stroke-width:0px;"/><path d="m537.16,13.55c-.71,3.36-2.56,5.05-3.99,5.87-1.6.93-3.42,1.4-5.41,1.4-1.26,0-2.67-.05-4.2-.15l-.36-.03c-4.56-.63-8.65-.4-12.15.71-3.32,1.04-5.85,2.67-7.73,4.97-1.75,2.15-2.61,4.69-2.61,7.78v40.68c0,3.91-1.59,6.31-2.91,7.63-1.33,1.33-3.74,2.91-7.63,2.91s-6.32-1.59-7.64-2.91c-1.32-1.32-2.9-3.73-2.9-7.63V11.37c0-3.91,1.58-6.31,2.9-7.63,1.33-1.34,3.74-2.91,7.64-2.91s6.3,1.58,7.63,2.9c.58.58,1.22,1.38,1.74,2.42.83-.58,1.7-1.14,2.59-1.66,5.11-2.98,10.85-4.49,17.07-4.49,5.54,0,9.79.87,12.97,2.68,4.25,2.41,6.11,6.46,4.99,10.88Z" style="fill:#fff; stroke-width:0px;"/><path d="m319.3,31.5c-.97-3.67-2.39-7.12-4.25-10.34-3.74-6.45-8.88-11.62-15.3-15.37-6.42-3.75-13.71-5.65-21.65-5.65s-15.39,1.89-21.86,5.64c-6.46,3.75-11.63,8.92-15.37,15.38-3.75,6.45-5.65,13.86-5.65,21.99s1.81,15.33,5.4,21.77c3.59,6.46,8.54,11.64,14.7,15.4,6.22,3.79,13.32,5.7,21.13,5.7s14.36-1.82,20.34-5.41c1.12-.67,2.2-1.4,3.24-2.16.52,1.52,1.37,2.87,2.54,3.99,1.99,1.89,4.6,2.9,7.56,2.9s5.4-.98,7.43-2.85c2.13-1.95,3.26-4.62,3.26-7.7v-31.7c-.05-4.06-.57-7.92-1.53-11.59Zm-19.57,11.65c-.04,11.99-9.78,21.68-21.78,21.68-.72,0-1.45-.04-2.15-.11-.36-.03-.7-.07-1.05-.13-.36-.05-.7-.11-1.04-.18-.35-.06-.68-.14-1.02-.23-.41-.1-.8-.21-1.2-.33-.59-.19-1.18-.4-1.74-.63-.32-.12-.63-.26-.94-.41-.62-.28-1.23-.59-1.81-.94-.29-.17-.57-.35-.86-.54-.26-.16-.52-.34-.77-.53-.04-.02-.07-.04-.1-.07-.26-.18-.52-.37-.77-.58-.26-.19-.52-.41-.76-.62l-.04-.04c-.25-.21-.5-.43-.72-.65-.25-.23-.49-.47-.71-.71-.24-.24-.46-.49-.68-.74-.23-.25-.45-.51-.64-.77-.21-.25-.4-.5-.58-.75-.26-.36-.51-.71-.74-1.09-.12-.19-.25-.39-.37-.58l-.12-.21c-.14-.25-.28-.5-.42-.75-.15-.29-.3-.58-.45-.88,0-.03-.02-.05-.03-.07-.14-.3-.27-.59-.39-.89-.38-.9-.69-1.84-.94-2.81-.08-.29-.15-.57-.21-.86-.1-.44-.18-.87-.25-1.32-.11-.69-.18-1.41-.22-2.12-.02-.38-.03-.74-.03-1.12v-.13c0-.36,0-.71.03-1.06.58-11.48,10.09-20.63,21.74-20.63.72,0,1.45.04,2.15.11.36.03.7.07,1.05.13.36.05.69.11,1.04.18.35.06.68.14,1.02.23.49.12.96.25,1.43.41.27.08.53.17.78.27.32.11.63.24.94.37.05.02.1.04.15.07.29.12.59.25.86.39.25.12.49.24.72.37.17.09.34.18.5.27.18.1.35.2.53.31.56.33,1.11.69,1.64,1.08.19.14.38.28.57.43.05.03.1.07.15.12.22.16.43.34.63.52.05.05.11.1.17.15.22.18.43.38.63.58,0,0,.03.02.05.04.24.22.47.46.69.69.25.24.48.49.68.74.46.51.87,1.03,1.26,1.58.2.27.4.55.56.82.23.34.44.67.63,1.02.15.24.29.49.41.73.16.3.32.59.46.9.15.31.29.62.42.94.14.32.26.62.37.95.13.32.24.65.33.98.16.5.29.99.41,1.5.12.51.22,1.01.3,1.53v.02c.06.32.09.64.13.96,0,.03,0,.05,0,.08v.04c.02.2.04.4.05.59-.02-.39-.05-.76-.08-1.14.04.45.08.9.1,1.36,0,.07,0,.14,0,.22,0,.12,0,.24.02.36,0,.27.02.55.02.81v.13Z" style="fill:#fff; stroke-width:0px;"/><path d="m295.6,30.34c-.4-.55-.81-1.08-1.26-1.58.46.51.87,1.03,1.26,1.58Z" style="fill:#fff; stroke-width:0px;"/><path d="m299.69,41.85c0-.15-.02-.3-.03-.44,0,.07.02.14.02.22,0,.07,0,.14,0,.22Z" style="fill:#fff; stroke-width:0px;"/><path d="m256.42,46.39c-.11-.69-.18-1.41-.22-2.12.04.71.12,1.43.22,2.12Z" style="fill:#fff; stroke-width:0px;"/><path d="m85.04,42.64c0,.77-.02,1.53-.06,2.29v29.74c0,5.62-4.6,10.22-10.21,10.22h-1.07c-4.05,0-7.57-2.39-9.22-5.83-.28-.58-.5-1.19-.67-1.82-.21-.82-.33-1.68-.33-2.57l.24-31.85s0,.01,0,.01c0,0-.02-1.17,0-.32,0-.06,0-.12,0-.18-.1-11.75-9.61-21.26-21.36-21.35-.05,0-.11,0-.17,0-.5,0-.99.02-1.49.05-16.91.94-30.33,14.95-30.33,32.1,0,15.77,11.36,28.9,26.35,31.63C15.98,81.93,0,64.15,0,42.64,0,19.16,19.04.12,42.52.12s42.52,19.04,42.52,42.52Z" style="fill:#fff; stroke-width:0px;"/><path d="m58.61,82.01c-3.25,1.33-6.69,2.27-10.28,2.76-1.9.26-3.83.39-5.8.39s-3.91-.13-5.81-.39c-14.99-2.73-26.35-15.85-26.35-31.63,0-17.15,13.42-31.16,30.33-32.1-11.2.76-20.04,10.09-20.04,21.48s9.64,21.53,21.53,21.53c6.58,0,12.47-2.95,16.42-7.6v25.57Z" style="fill:url(#Sfumatura_senza_nome_17); stroke-width:0px;"/><path d="m64.47,79.06c-1.87,1.13-3.83,2.12-5.86,2.95v-25.57c2.53-2.97,4.26-6.65,4.87-10.68.15-.95.23-1.93.24-2.92,0,0,0,0,0-.01l-.24,31.85c0,.89.11,1.75.33,2.57.16.63.39,1.24.67,1.82Z" style="fill:#fff; opacity:.2; stroke-width:0px;"/></svg>